<svg width="24" height="28" viewBox="0 0 24 28" fill="none" xmlns="http://www.w3.org/2000/svg">
<g clip-path="url(#clip0_57_1250)">
<path d="M17 15.9091C17 16.2105 16.8946 16.4995 16.7071 16.7126C16.5196 16.9258 16.2652 17.0455 16 17.0455H8C7.73478 17.0455 7.48043 16.9258 7.29289 16.7126C7.10536 16.4995 7 16.2105 7 15.9091C7 15.6077 7.10536 15.3187 7.29289 15.1056C7.48043 14.8925 7.73478 14.7728 8 14.7728H16C16.2652 14.7728 16.5196 14.8925 16.7071 15.1056C16.8946 15.3187 17 15.6077 17 15.9091ZM13 19.3182H8C7.73478 19.3182 7.48043 19.4379 7.29289 19.651C7.10536 19.8641 7 20.1532 7 20.4546C7 20.756 7.10536 21.045 7.29289 21.2581C7.48043 21.4712 7.73478 21.5909 8 21.5909H13C13.2652 21.5909 13.5196 21.4712 13.7071 21.2581C13.8946 21.045 14 20.756 14 20.4546C14 20.1532 13.8946 19.8641 13.7071 19.651C13.5196 19.4379 13.2652 19.3182 13 19.3182ZM22 11.9148V21.5909C21.9984 23.0973 21.4711 24.5414 20.5338 25.6066C19.5964 26.6718 18.3256 27.2709 17 27.2728H7C5.67441 27.2709 4.40356 26.6718 3.46622 25.6066C2.52888 24.5414 2.00159 23.0973 2 21.5909V5.68184C2.00159 4.17549 2.52888 2.73134 3.46622 1.66619C4.40356 0.601028 5.67441 0.00183058 7 2.61917e-05H11.515C12.4346 -0.0026635 13.3456 0.20183 14.1952 0.601684C15.0449 1.00154 15.8163 1.58882 16.465 2.32957L19.949 6.29093C20.6012 7.02757 21.1184 7.90395 21.4704 8.86932C21.8225 9.83468 22.0025 10.8698 22 11.9148ZM15.051 3.93639C14.7363 3.58998 14.3829 3.29199 14 3.05003V7.95457C14 8.25595 14.1054 8.54499 14.2929 8.7581C14.4804 8.97121 14.7348 9.09093 15 9.09093H19.316C19.103 8.65592 18.8404 8.25474 18.535 7.89775L15.051 3.93639ZM20 11.9148C20 11.7273 19.968 11.5478 19.953 11.3637H15C14.2044 11.3637 13.4413 11.0045 12.8787 10.3652C12.3161 9.72583 12 8.85872 12 7.95457V2.32616C11.838 2.30912 11.679 2.27275 11.515 2.27275H7C6.20435 2.27275 5.44129 2.63192 4.87868 3.27125C4.31607 3.91058 4 4.7777 4 5.68184V21.5909C4 22.4951 4.31607 23.3622 4.87868 24.0015C5.44129 24.6409 6.20435 25 7 25H17C17.7956 25 18.5587 24.6409 19.1213 24.0015C19.6839 23.3622 20 22.4951 20 21.5909V11.9148Z" fill="#EDEDED"/>
</g>
<defs>
<clipPath id="clip0_57_1250">
<rect width="24" height="27.2727" fill="white"/>
</clipPath>
</defs>
</svg>
