<svg width="27" height="24" viewBox="0 0 27 24" fill="none" xmlns="http://www.w3.org/2000/svg">
<g clip-path="url(#clip0_232_762)">
<path d="M12.8184 12C14.113 12 15.3785 11.6481 16.4549 10.9888C17.5313 10.3295 18.3702 9.39246 18.8656 8.2961C19.361 7.19975 19.4906 5.99335 19.2381 4.82946C18.9855 3.66558 18.3621 2.59648 17.4467 1.75736C16.5313 0.918247 15.3651 0.346802 14.0954 0.115291C12.8257 -0.11622 11.5096 0.00259972 10.3136 0.456726C9.11754 0.910851 8.09528 1.67989 7.37606 2.66658C6.65683 3.65328 6.27295 4.81331 6.27295 6C6.27468 7.59081 6.96485 9.11602 8.19198 10.2409C9.41912 11.3658 11.083 11.9984 12.8184 12ZM12.8184 2C13.6814 2 14.5251 2.2346 15.2427 2.67412C15.9603 3.11365 16.5196 3.73836 16.8499 4.46927C17.1802 5.20017 17.2666 6.00444 17.0982 6.78036C16.9298 7.55629 16.5142 8.26902 15.904 8.82843C15.2937 9.38784 14.5162 9.7688 13.6697 9.92314C12.8232 10.0775 11.9459 9.99827 11.1485 9.69552C10.3512 9.39277 9.66966 8.88008 9.19017 8.22228C8.71069 7.56449 8.45477 6.79113 8.45477 6C8.45477 4.93914 8.91451 3.92172 9.73285 3.17158C10.5512 2.42143 11.6611 2 12.8184 2V2Z" fill="#EDEDED"/>
<path d="M12.8182 14.0007C10.2151 14.0034 7.71951 14.9524 5.87887 16.6397C4.03823 18.3269 3.00289 20.6146 3 23.0007C3 23.2659 3.11493 23.5203 3.31952 23.7078C3.5241 23.8954 3.80158 24.0007 4.09091 24.0007C4.38024 24.0007 4.65771 23.8954 4.8623 23.7078C5.06688 23.5203 5.18182 23.2659 5.18182 23.0007C5.18182 21.1442 5.98636 19.3637 7.41846 18.051C8.85055 16.7382 10.7929 16.0007 12.8182 16.0007C14.8435 16.0007 16.7858 16.7382 18.2179 18.051C19.65 19.3637 20.4545 21.1442 20.4545 23.0007C20.4545 23.2659 20.5695 23.5203 20.7741 23.7078C20.9786 23.8954 21.2561 24.0007 21.5455 24.0007C21.8348 24.0007 22.1123 23.8954 22.3168 23.7078C22.5214 23.5203 22.6364 23.2659 22.6364 23.0007C22.6335 20.6146 21.5981 18.3269 19.7575 16.6397C17.9169 14.9524 15.4212 14.0034 12.8182 14.0007V14.0007Z" fill="#EDEDED"/>
</g>
<defs>
<clipPath id="clip0_232_762">
<rect width="26.1818" height="24" fill="white"/>
</clipPath>
</defs>
</svg>
